<!-- icon666.com - MILLIONS vector ICONS FREE --><svg viewBox="0 -23 512 512" xmlns="http://www.w3.org/2000/svg">
<path d="m60 150h-30v-120h27.929688l64.285156 180h91.855468l-75-210h-139.070312v180h60zm0 0" fill="#000000" style="fill:#e8793e;"></path>
<path d="m482 405h30v-60h-52.925781c14.253906 15.921875 22.925781 36.949219 22.925781 60zm0 0" fill="#000000" style="fill:#e8793e;"></path>
<path d="m271 240v165h31c0-49.707031 40.292969-90 90-90h120v-75zm0 0" fill="#000000" style="fill:#e8793e;"></path>
<path d="m0 405h30c0-23.050781 8.671875-44.078125 22.925781-60h-52.925781zm0 0" fill="#000000" style="fill:#e8793e;"></path>
<path d="m0 315h120c49.707031 0 90 40.292969 90 90h31v-165h-241zm0 0" fill="#000000" style="fill:#e8793e;"></path>
<path d="m392.34375 125.25c-13.792969-22.070312-37.570312-35.25-63.597656-35.25h-57.746094v120h174.3125zm0 0" fill="#000000" style="fill:#e8793e;"></path>
<path d="m392 345c-33.136719 0-60 26.863281-60 60s26.863281 60 60 60 60-26.863281 60-60-26.863281-60-60-60zm0 75c-8.285156 0-15-6.714844-15-15s6.714844-15 15-15 15 6.714844 15 15-6.714844 15-15 15zm0 0" fill="#000000" style="fill: #e8793e;"></path>
<path d="m120 345c-33.136719 0-60 26.863281-60 60s26.863281 60 60 60 60-26.863281 60-60-26.863281-60-60-60zm0 75c-8.285156 0-15-6.714844-15-15s6.714844-15 15-15 15 6.714844 15 15-6.714844 15-15 15zm0 0" fill="#000000" style="fill: #e8793e;"></path></svg>